Coordinates
version=1
nRows=8
nColumns=40
inDegrees=yes

Units are S.I. units (second, meters, Newtons, ...)
If the header above contains a line with 'inDegrees', this indicates whether rotational values are in degrees (yes) or radians (no).

endheader
time	pelvis_tilt	pelvis_list	pelvis_rotation	pelvis_tx	pelvis_ty	pelvis_tz	hip_flexion_r	hip_adduction_r	hip_rotation_r	knee_angle_r	knee_angle_r_beta	ankle_angle_r	subtalar_angle_r	mtp_angle_r	hip_flexion_l	hip_adduction_l	hip_rotation_l	knee_angle_l	knee_angle_l_beta	ankle_angle_l	subtalar_angle_l	mtp_angle_l	lumbar_extension	lumbar_bending	lumbar_rotation	arm_flex_r	arm_add_r	arm_rot_r	elbow_flex_r	pro_sup_r	wrist_flex_r	wrist_dev_r	arm_flex_l	arm_add_l	arm_rot_l	elbow_flex_l	pro_sup_l	wrist_flex_l	wrist_dev_l
      0.81000000	     -6.05719233	    -10.05341017	     84.37613514	      0.22008698	      0.94921763	      0.34810863	     24.81012123	     -6.48665515	      0.46270428	     66.87604741	      1.16720722	     -0.26061731	      0.00000000	      0.00000000	     23.82318951	      7.70245970	     -0.61170595	     22.68569687	      0.39594010	      4.91344784	      0.00000000	      0.00000000	      3.78459273	     -6.52646515	      5.95717810	      0.00000000	      0.00000000	      0.00000000	      0.00000000	      0.00000000	      0.00000000	      0.00000000	      0.00000000	      0.00000000	      0.00000000	      0.00000000	      0.00000000	      0.00000000	      0.00000000
      0.82000000	     -5.47469497	    -10.41519811	     84.12904493	      0.22018217	      0.95287384	      0.32842323	     27.34373125	     -5.34716240	      0.42419498	     65.72512164	      1.14711977	      1.82809635	      0.00000000	      0.00000000	     21.92259781	      7.20857253	     -0.25698304	     20.97587620	      0.36609810	      5.03571656	      0.00000000	      0.00000000	      4.19382891	     -5.67055492	      5.85954547	      0.00000000	      0.00000000	      0.00000000	      0.00000000	      0.00000000	      0.00000000	      0.00000000	      0.00000000	      0.00000000	      0.00000000	      0.00000000	      0.00000000	      0.00000000	      0.00000000
      0.83000000	     -4.91331975	    -10.79516247	     83.92276933	      0.22033872	      0.95592816	      0.30871786	     29.70705215	     -4.22735875	      0.33938106	     64.05727741	      1.11801040	      3.38232600	      0.00000000	      0.00000000	     20.06053951	      6.71963836	     -0.01433371	     19.27642036	      0.33643700	      5.12884762	      0.00000000	      0.00000000	      4.60788095	     -4.85410050	      5.66612629	      0.00000000	      0.00000000	      0.00000000	      0.00000000	      0.00000000	      0.00000000	      0.00000000	      0.00000000	      0.00000000	      0.00000000	      0.00000000	      0.00000000	      0.00000000	      0.00000000
      0.84000000	     -4.34352803	    -11.16775090	     83.80680789	      0.22050722	      0.95835602	      0.28893968	     31.84715380	     -3.13503586	      0.17786890	     61.88798144	      1.08014904	      4.46100211	      0.00000000	      0.00000000	     18.20581079	      6.24093506	      0.20871803	     17.58807856	      0.30696988	      5.19255831	      0.00000000	      0.00000000	      4.99104927	     -4.07268436	      5.42593019	      0.00000000	      0.00000000	      0.00000000	      0.00000000	      0.00000000	      0.00000000	      0.00000000	      0.00000000	      0.00000000	      0.00000000	      0.00000000	      0.00000000	      0.00000000	      0.00000000
      0.85000000	     -3.79403296	    -11.48902408	     83.79060527	      0.22056581	      0.96014289	      0.26907700	     33.73078983	     -2.14072791	     -0.07205535	     59.25957011	      1.03427461	      5.04743120	      0.00000000	      0.00000000	     16.33895652	      5.81298218	      0.42529353	     15.96712759	      0.27867895	      5.25062331	      0.00000000	      0.00000000	      5.28915237	     -3.33693514	      5.12283752	      0.00000000	      0.00000000	      0.00000000	      0.00000000	      0.00000000	      0.00000000	      0.00000000	      0.00000000	      0.00000000	      0.00000000	      0.00000000	      0.00000000	      0.00000000	      0.00000000
      0.86000000	     -3.30134311	    -11.71619070	     83.87240946	      0.22053541	      0.96125747	      0.24910325	     35.32741816	     -1.29533868	     -0.38865036	     56.21774397	      0.98118473	      5.22653096	      0.00000000	      0.00000000	     14.41265413	      5.47498571	      0.61591329	     14.41117015	      0.25152237	      5.35926968	      0.00000000	      0.00000000	      5.46631129	     -2.70222168	      4.68907997	      0.00000000	      0.00000000	      0.00000000	      0.00000000	      0.00000000	      0.00000000	      0.00000000	      0.00000000	      0.00000000	      0.00000000	      0.00000000	      0.00000000	      0.00000000	      0.00000000
      0.87000000	     -2.84410334	    -11.90283617	     84.09741759	      0.22035489	      0.96164568	      0.22915813	     36.69960552	     -0.61565215	     -0.84688537	     52.77907575	      0.92116865	      5.12489582	      0.00000000	      0.00000000	     12.52072985	      5.19978951	      0.86912471	     12.96600379	      0.22629946	      5.45693168	      0.00000000	      0.00000000	      5.56084421	     -2.17715149	      4.28656670	      0.00000000	      0.00000000	      0.00000000	      0.00000000	      0.00000000	      0.00000000	      0.00000000	      0.00000000	      0.00000000	      0.00000000	      0.00000000	      0.00000000	      0.00000000	      0.00000000
      0.88000000	     -2.51312740	    -12.05384794	     84.37053333	      0.22005696	      0.96119120	      0.20916995	     37.90380624	     -0.13249604	     -1.31859800	     49.03855985	      0.85588433	      4.90265090	      0.00000000	      0.00000000	     10.65839511	      5.05652398	      1.09299052	     11.63046589	      0.20298992	      5.61135740	      0.00000000	      0.00000000	      5.61575354	     -1.80891473	      3.82093675	      0.00000000	      0.00000000	      0.00000000	      0.00000000	      0.00000000	      0.00000000	      0.00000000	      0.00000000	      0.00000000	      0.00000000	      0.00000000	      0.00000000	      0.00000000	      0.00000000
